<?xml version="1.0" encoding="UTF-8" standalone="no"?>
<!-- Created with Inkscape (http://www.inkscape.org/) -->

<svg
   xmlns:dc="http://purl.org/dc/elements/1.1/"
   xmlns:cc="http://creativecommons.org/ns#"
   xmlns:rdf="http://www.w3.org/1999/02/22-rdf-syntax-ns#"
   xmlns:svg="http://www.w3.org/2000/svg"
   xmlns="http://www.w3.org/2000/svg"
   xmlns:sodipodi="http://sodipodi.sourceforge.net/DTD/sodipodi-0.dtd"
   xmlns:inkscape="http://www.inkscape.org/namespaces/inkscape"
   width="210mm"
   height="297mm"
   viewBox="0 0 210 297"
   version="1.1"
   id="svg8"
   inkscape:version="0.92.4 (5da689c313, 2019-01-14)"
   sodipodi:docname="Riparin.svg">
  <defs
     id="defs2" />
  <sodipodi:namedview
     id="base"
     pagecolor="#ffffff"
     bordercolor="#666666"
     borderopacity="1.0"
     inkscape:pageopacity="0.0"
     inkscape:pageshadow="2"
     inkscape:zoom="0.35"
     inkscape:cx="-336.8151"
     inkscape:cy="858.04378"
     inkscape:document-units="mm"
     inkscape:current-layer="layer1"
     showgrid="false"
     inkscape:window-width="1920"
     inkscape:window-height="1046"
     inkscape:window-x="-11"
     inkscape:window-y="-11"
     inkscape:window-maximized="1" />
  <metadata
     id="metadata5">
    <rdf:RDF>
      <cc:Work
         rdf:about="">
        <dc:format>image/svg+xml</dc:format>
        <dc:type
           rdf:resource="http://purl.org/dc/dcmitype/StillImage" />
        <dc:title></dc:title>
      </cc:Work>
    </rdf:RDF>
  </metadata>
  <g
     inkscape:label="Hood"
     inkscape:groupmode="layer"
     id="layer1">
    <path
       style="fill:none;stroke:#000000;stroke-width:1.5;stroke-linecap:butt;stroke-linejoin:miter;stroke-miterlimit:4;stroke-dasharray:none;stroke-opacity:1"
       d="m 71.557423,86.734526 c -5.938624,14.811744 -12.097126,29.999094 4.535715,32.883924 l 4.230912,1.78623 c -1.694995,3.25023 -6.59011,4.26248 -10.87423,5.70203 16.250257,5.35762 19.878536,1.14105 26.766535,-0.33203 l 8.413985,4.89176 c 3.93993,-1.67098 9.65672,-5.83537 9.65672,-5.83537 9.02733,4.64585 28.49367,1.86888 28.49367,1.86888 0,0 -9.39152,-8.78065 -6.44376,-10.623 18.76339,-3.78403 8.93546,-28.026041 5.14605,-35.256115 -4.91007,-9.394521 2.66336,-8.7627 5.60905,-14.865229 0.7637,-1.582145 -0.32286,-3.843638 0.98856,-4.931167 7.63193,-6.328961 3.87467,-11.001185 3.87467,-11.001185 0.75408,0.58387 -1.70185,4.9343 -4.28792,6.324181 -3.56511,1.916061 -0.97922,-8.299751 1.68318,-12.796041 10.09057,-3.38448 2.84207,-7.89108 4.13928,-12.81332 -4.29245,2.35754 -3.62239,13.24197 -6.81941,4.58812 -0.31546,-7.90353 -5.77122,-10.04057 -7.88048,-10.35134 5.00529,3.88639 -1.89085,10.97795 2.49688,15.22087 0.94919,0.91787 -0.45475,2.12007 -0.45475,2.12007 -2.0367,-6.61806 -10.64517,1.61552 -9.76104,-7.64456 -8.52586,9.63116 6.11227,9.99577 8.93221,14.93231 1.63223,2.857356 -0.82075,6.507506 -0.78808,9.672649 -3.18163,-0.141746 -4.80501,1.30221 -6.51238,1.634116 -2.42369,0.471156 -5.18961,-10.627625 -4.90426,-10.011625 0,0 0.65605,12.879117 2.46498,13.543991 2.68937,0.988472 -1.88697,5.471439 -5.03347,6.550779 -2.44793,-0.386013 -4.49086,-1.205954 -5.69509,-2.924507 1.60711,-2.6037 1.32733,-5.550469 0.17132,-8.656556 -1.12549,2.362507 -2.69592,4.470759 -4.70335,6.329299 -1.6761,-0.119554 -2.9546,-0.716219 -4.19231,-1.361834 -1.47978,-0.534076 -1.16981,-1.835187 -1.52338,-2.851924 4.4074,-2.698191 2.93854,-6.014935 2.84371,-9.187045 -2.02065,1.803023 -2.59593,5.147779 -6.29552,5.159931 -3.33503,-2.226704 -4.05633,-5.87908 -4.49714,-9.684454 -3.04155,4.01407 -5.678752,8.138413 -2.944546,13.727686 -0.662712,3.169747 -4.271565,2.847772 -7.197351,3.335357 -1.713522,-2.182263 -1.506797,-5.516674 -2.098235,-8.372187 -1.61291,3.385528 -4.203834,6.771055 -1.752305,10.156583 L 82.89671,69.725596 C 79.32173,60.692907 67.863478,68.696662 69.667544,56.49643 c 1.545117,-3.494919 0.228635,-8.420636 -1.18698,-13.395926 2.61485,-0.9657 5.306524,-0.73617 6.279447,-2.65182 0.7421,-1.46116 1.21187,-3.13293 0.451985,-4.32958 -0.984468,-1.55031 2.914746,-7.31803 1.725176,-7.04536 -0.452511,0.10373 -3.3617,1.63679 -4.167223,3.51041 -1.132107,2.63325 -0.599561,6.53167 -4.835036,4.3583 l -0.470993,-5.3155 c -0.125762,-1.83668 4.409389,-7.28469 3.967738,-6.59426 -7.234513,3.28002 -11.629373,7.90986 -7.506998,14.42712 0.06838,1.38777 0.01367,2.72913 -0.005,4.0372 -0.04701,3.28832 -6.82957,-2.30284 -7.041123,-2.3825 -0.913796,-0.34408 3.317004,8.5037 6.502364,7.3091 l -1.956973,7.406449 c 0,0 -0.212667,7.52817 -1.347942,8.848169 -2.064548,2.400479 -4.544318,-8.334946 -4.686954,-8.038632 -2.495481,5.184112 -3.585954,9.460404 2.705394,14.048134 13.641755,4.260001 5.263856,11.437798 13.463028,16.046792 z"
       id="path815"
       inkscape:connector-curvature="0"
       sodipodi:nodetypes="ccccccccccssssccccsccscsssccccccccccccccccssssccccssccssccc" />
    <path
       style="fill:none;stroke:#000000;stroke-width:1.5;stroke-linecap:butt;stroke-linejoin:miter;stroke-miterlimit:4;stroke-dasharray:none;stroke-opacity:1"
       d="m 118.89894,79.36399 c -19.658219,-14.655359 -46.187299,33.64005 -38.0811,34.67931 14.655481,1.77416 12.757139,9.61689 26.17485,8.97693 8.98244,-9.97628 14.0695,2.8912 26.26935,-10.20535 3.06963,-8.53971 -12.23965,-33.139883 -30.04911,-34.017854"
       id="path817"
       inkscape:connector-curvature="0"
       sodipodi:nodetypes="ccccc" />
    <ellipse
       style="opacity:1;fill:none;fill-opacity:1;fill-rule:evenodd;stroke:#000000;stroke-width:1.5;stroke-linecap:round;stroke-linejoin:round;stroke-miterlimit:4;stroke-dasharray:none;stroke-dashoffset:2.85696578;stroke-opacity:1;paint-order:fill markers stroke"
       id="path819"
       cx="92.771339"
       cy="100.76691"
       rx="8.7406988"
       ry="7.8902526" />
    <ellipse
       style="opacity:1;fill:none;fill-opacity:1;fill-rule:evenodd;stroke:#000000;stroke-width:1.5;stroke-linecap:round;stroke-linejoin:round;stroke-miterlimit:4;stroke-dasharray:none;stroke-dashoffset:2.85696578;stroke-opacity:1;paint-order:fill markers stroke"
       id="path819-6"
       cx="120.69432"
       cy="100.53065"
       rx="8.7406988"
       ry="7.8902531" />
    <path
       style="fill:none;stroke:#000000;stroke-width:1.5;stroke-linecap:round;stroke-linejoin:miter;stroke-miterlimit:4;stroke-dasharray:none;stroke-opacity:1"
       d="m 91.740265,88.529764 7.483547,3.00678"
       id="path836"
       inkscape:connector-curvature="0" />
    <path
       style="fill:none;stroke:#000000;stroke-width:1.5;stroke-linecap:round;stroke-linejoin:miter;stroke-miterlimit:4;stroke-dasharray:none;stroke-opacity:1"
       d="m 120.50349,88.529764 -7.48355,3.00678"
       id="path836-8"
       inkscape:connector-curvature="0" />
    <path
       style="fill:none;stroke:#000000;stroke-width:1.5;stroke-linecap:butt;stroke-linejoin:miter;stroke-miterlimit:4;stroke-dasharray:none;stroke-opacity:1"
       d="m 101.79355,115.98773 h 9.82738 c 0,0 0.46918,-10.68849 -5.32982,-11.9341 -4.0878,1.52593 -4.16561,8.61561 -4.49756,11.9341 z"
       id="path853"
       inkscape:connector-curvature="0"
       sodipodi:nodetypes="cccc" />
    <path
       sodipodi:type="star"
       style="opacity:1;fill:none;fill-opacity:1;fill-rule:evenodd;stroke:#000000;stroke-width:1.50000012;stroke-linecap:round;stroke-linejoin:round;stroke-miterlimit:4;stroke-dasharray:none;stroke-dashoffset:2.85696578;stroke-opacity:1;paint-order:fill markers stroke"
       id="path855"
       sodipodi:sides="4"
       sodipodi:cx="92.709117"
       sodipodi:cy="100.85757"
       sodipodi:r1="7.8513818"
       sodipodi:r2="2.6694698"
       sodipodi:arg1="1.5613626"
       sodipodi:arg2="2.3467608"
       inkscape:flatsided="false"
       inkscape:rounded="0.4"
       inkscape:randomized="0"
       d="m 92.783181,108.7086 c -2.502039,0.0236 -0.157877,-4.19319 -1.943776,-5.94571 -1.7859,-1.75252 -5.957719,0.67078 -5.981323,-1.83126 -0.0236,-2.502035 4.193191,-0.15787 5.945709,-1.943773 1.752518,-1.785899 -0.670783,-5.957718 1.831256,-5.981323 2.502039,-0.0236 0.157877,4.193192 1.943777,5.94571 1.785899,1.752516 5.957716,-0.670783 5.981326,1.831256 0.0236,2.50204 -4.193195,0.15788 -5.945713,1.94378 -1.752518,1.7859 0.670783,5.95772 -1.831256,5.98132 z"
       inkscape:transform-center-y="1.1027347e-05"
       inkscape:transform-center-x="-2.5688418e-06" />
    <path
       sodipodi:type="star"
       style="opacity:1;fill:none;fill-opacity:1;fill-rule:evenodd;stroke:#000000;stroke-width:1.50000012;stroke-linecap:round;stroke-linejoin:round;stroke-miterlimit:4;stroke-dasharray:none;stroke-dashoffset:2.85696578;stroke-opacity:1;paint-order:fill markers stroke"
       id="path855-8"
       sodipodi:sides="4"
       sodipodi:cx="120.57196"
       sodipodi:cy="100.65712"
       sodipodi:r1="7.8513818"
       sodipodi:r2="2.6694701"
       sodipodi:arg1="1.5613626"
       sodipodi:arg2="2.3467608"
       inkscape:flatsided="false"
       inkscape:rounded="0.4"
       inkscape:randomized="0"
       d="m 120.64603,108.50815 c -2.50204,0.0236 -0.15788,-4.19319 -1.94378,-5.94571 -1.7859,-1.75251 -5.95772,0.67079 -5.98132,-1.83125 -0.0236,-2.502042 4.19319,-0.15788 5.94571,-1.94378 1.75252,-1.785899 -0.67079,-5.957719 1.83125,-5.981323 2.50204,-0.0236 0.15788,4.193192 1.94378,5.94571 1.7859,1.752513 5.95772,-0.670783 5.98132,1.831253 0.0236,2.50204 -4.19319,0.15788 -5.94571,1.94378 -1.75251,1.7859 0.67079,5.95772 -1.83125,5.98132 z"
       inkscape:transform-center-y="3.3979523e-06"
       inkscape:transform-center-x="-2.5688418e-06" />
    <path
       style="fill:none;stroke:#000000;stroke-width:1.5;stroke-linecap:butt;stroke-linejoin:miter;stroke-miterlimit:4;stroke-dasharray:none;stroke-opacity:1"
       d="m 103.63376,20.977394 c -7.23967,1.61535 -8.21691,5.05725 -6.949009,9.15398 7.405959,-0.46638 8.242269,8.50712 7.750819,10.62396 3.10781,-1.45406 5.57284,-6.46013 6.5481,-10.7576 -5.24622,-1.52952 -11.242057,-2.66301 -7.34991,-9.02034 z"
       id="path872"
       inkscape:connector-curvature="0"
       sodipodi:nodetypes="ccccc" />
    <path
       style="fill:none;stroke:#000000;stroke-width:1.5;stroke-linecap:butt;stroke-linejoin:miter;stroke-miterlimit:4;stroke-dasharray:none;stroke-opacity:1"
       d="m 45.477067,91.081252 c -3.17268,0.463002 -6.320611,13.033188 -1.855489,13.488898 2.129254,-2.14452 10.40384,3.68398 9.124701,8.87903 -0.354178,1.43845 2.132945,3.31082 2.132945,3.31082 -0.421927,-1.56021 -0.79767,-3.1144 0.198967,-4.48958 2.926163,-4.03758 6.167861,-9.63297 -0.718683,-13.440658 -0.24419,2.376948 -0.496617,4.744768 -5.291667,2.078868 -5.871017,-3.192809 -3.977573,-6.671334 -3.590774,-9.827378 z"
       id="path874"
       inkscape:connector-curvature="0"
       sodipodi:nodetypes="ccscsccc" />
    <path
       style="fill:none;stroke:#000000;stroke-width:1.5;stroke-linecap:butt;stroke-linejoin:miter;stroke-miterlimit:4;stroke-dasharray:none;stroke-opacity:1"
       d="m 162.76599,73.474328 c 2.72221,0.604175 2.39197,2.57723 1.52122,5.088954 -1.85875,5.361655 13.45582,6.456334 4.29017,12.81767 -4.64576,-3.007393 -6.83717,12.699558 -6.28386,10.299848 1.91491,-8.304874 -14.30565,-7.574587 -9.02418,-15.969491 2.87621,3.224762 4.00831,4.715762 7.51228,4.299478 4.25811,-2.932953 2.48515,-4.349633 0.42522,-6.567335 -3.69519,-3.330183 3.04145,-7.872613 1.55915,-9.969124 z"
       id="path876"
       inkscape:connector-curvature="0"
       sodipodi:nodetypes="cscscccc" />
  </g>
</svg>
